/vscmnt/brussel_pixiu_data/_data_brussel/112/vsc11236/PredSimResults/SUBJ09mtu3D/worker2.mot
version=1
nRows=5
nColumns=50
inDegrees=yes
endheader
                time	         pelvis_tilt	         pelvis_list	     pelvis_rotation	           pelvis_tx	           pelvis_ty	           pelvis_tz	       hip_flexion_r	     hip_adduction_r	      hip_rotation_r	        knee_angle_r	       ankle_angle_r	         mtp_angle_r	       hip_flexion_l	     hip_adduction_l	      hip_rotation_l	        knee_angle_l	       ankle_angle_l	         mtp_angle_l	    lumbar_extension	      lumbar_bending	     lumbar_rotation	 ercspn_r/activation	 intobl_r/activation	 extobl_r/activation	    abd_r/activation	    add_r/activation	hamstrings_r/activation	bifemsh_r/activation	glut_max_r/activation	iliopsoas_r/activation	rect_fem_r/activation	  vasti_r/activation	gastroc_r/activation	 soleus_r/activation	tib_ant_r/activation	 ercspn_l/activation	 intobl_l/activation	 extobl_l/activation	    abd_l/activation	    add_l/activation	hamstrings_l/activation	bifemsh_l/activation	glut_max_l/activation	iliopsoas_l/activation	rect_fem_l/activation	  vasti_l/activation	gastroc_l/activation	 soleus_l/activation	tib_ant_l/activation	
          0.00000000	         -4.15532621	         -0.85437267	          8.19745553	          0.00000000	          0.98966891	         -0.00297840	         28.77910580	         -1.72933783	         -8.85915892	         -6.47335454	          4.04137181	          0.24746731	        -14.30683002	         -2.39465378	         -4.29869471	         -9.66507627	          3.63913266	         36.66140237	        -13.59357424	         -1.18185839	         -7.05388279	          0.02567070	          0.15552091	          0.03098827	          0.01429274	          0.22038263	          0.05549956	          0.12179249	          0.08526347	          0.13426772	          0.01691459	          0.01000000	          0.01413868	          0.01000000	          0.32341060	          0.02829156	          0.01000000	          0.01000000	          0.02792054	          0.01207444	          0.01457925	          0.15240675	          0.01211866	          0.01111510	          0.01000002	          0.01000001	          0.30374168	          0.21918824	          0.01298581	
          0.01244648	         -4.19125899	         -0.96953144	          8.19745900	          0.01988505	          0.98747945	         -0.00234317	         28.67026999	         -1.55748802	         -8.91119850	         -8.20752930	          3.61266919	          0.20948195	        -14.95099033	         -2.72354276	         -4.72252060	        -10.38833991	          2.49530771	         38.23738258	        -13.08203084	         -0.73810080	         -7.23909081	          0.02126042	          0.12880204	          0.02566441	          0.07917467	          0.19117440	          0.06049231	          0.10086825	          0.11099163	          0.11120020	          0.01400862	          0.01000000	          0.01207445	          0.01207441	          0.36277908	          0.02343101	          0.01000000	          0.01000001	          0.02312372	          0.01000004	          0.01207451	          0.12622292	          0.01003665	          0.01000008	          0.01000001	          0.01000002	          0.27379082	          0.19663991	          0.01075481	
          0.02489296	         -4.20867105	         -1.09419613	          8.16281441	          0.04000322	          0.98561514	         -0.00162676	         28.47666862	         -1.37018833	         -8.96640326	         -9.83772723	          3.05321105	          0.20353686	        -15.39368113	         -3.08119878	         -5.16660432	        -11.50951128	          1.23960736	         39.74162200	        -12.56090694	         -0.28332456	         -7.39104818	          0.02416579	          0.10667354	          0.02125520	          0.12854311	          0.20456987	          0.05009966	          0.08353884	          0.15345874	          0.09209574	          0.01160191	          0.01000000	          0.01000003	          0.00999999	          0.40989929	          0.03115822	          0.00999999	          0.01000000	          0.01915101	          0.01000000	          0.01000009	          0.10453753	          0.00999999	          0.01724589	          0.01000002	          0.01000000	          0.22675290	          0.16899856	          0.00999999	
          0.03733944	         -4.20874917	         -1.21894445	          8.09355249	          0.06002354	          0.98427133	         -0.00081814	         28.34108043	         -1.18220838	         -9.03929282	        -11.57849459	          2.47193992	          0.17089424	        -15.52771514	         -3.46601405	         -5.62545258	        -13.18571418	         -0.08866212	         41.02349583	        -12.06994875	          0.17226301	         -7.50692265	          0.03127332	          0.08834676	          0.01760351	          0.17556290	          0.24689686	          0.05046200	          0.06918667	          0.14545345	          0.07627347	          0.01000000	          0.08152521	          0.01000001	          0.01000000	          0.43355458	          0.08114786	          0.01000000	          0.01000000	          0.01586082	          0.03624970	          0.01990438	          0.08657773	          0.01000000	          0.01428305	          0.01000001	          0.01000008	          0.18779620	          0.13996420	          0.00999999	
          0.04978592	         -4.19348915	         -1.34416913	          7.99781268	          0.07974870	          0.98358972	          0.00006662	         28.26057181	         -0.99095058	         -9.09436836	        -13.46747996	          2.21455301	          0.12928390	        -15.27208029	         -3.88753850	         -6.10722800	        -15.52971320	         -1.45750566	         41.87789353	        -11.62699101	          0.62926913	         -7.59029129	          0.02590082	          0.07316858	          0.01457918	          0.20000530	          0.26481447	          0.04815914	          0.05730024	          0.16188096	          0.06316950	          0.01000000	          0.17718399	          0.01000001	          0.01000000	          0.43548817	          0.09609437	          0.01000000	          0.01000000	          0.01313589	          0.11959642	          0.02562267	          0.07170348	          0.00999999	          0.02125479	          0.01000000	          0.01000000	          0.15553236	          0.11591801	          0.00999999	
